<ttFont>
<head>
    <!-- Most of this table will be recalculated by the compiler -->
    <tableVersion value="1.0"/>
    <fontRevision value="1.0"/>
    <checkSumAdjustment value="0x374919d5"/>
    <magicNumber value="0x5f0f3cf5"/>
    <flags value="00000000 00001011"/>
    <unitsPerEm value="1000"/>
    <created value="Thu Jun 18 16:59:36 2015"/>
    <modified value="Thu Jun 18 17:33:44 2015"/>
    <xMin value="5"/>
    <yMin value="-215"/>
    <xMax value="760"/>
    <yMax value="670"/>
    <macStyle value="00000000 00000001"/>
    <lowestRecPPEM value="8"/>
    <fontDirectionHint value="2"/>
    <indexToLocFormat value="0"/>
    <glyphDataFormat value="0"/>
  </head>
          <CharString index="0">
            -36 30 -29 36 36 29 29 36 36 -29 29 -36 -36 -30 -29 -36 vhcurveto
            return
          </CharString>
        <CharString name=".notdef">
          -70 0 50 433 50 hstem
          50 50 300 50 vstem
          50 hmoveto
          400 533 -400 hlineto
          50 -483 rmoveto
          433 300 -433 vlineto
          endchar
        </CharString>
        <CharString name="si_A">
          3 -4 33 171 30 56 23 81 43 hstemhm
          33 126 154 32 12 31 -4 4 33 24 11 71 hintmask 1111110111000000
          428 200 rmoveto
          51 48 26 55 hvcurveto
          0 76 -82 12 0 34 0 11 6 4 6 3 rrcurveto
          -19 -3 -17 -14 rlineto
          0 -2 0 -5 0 -2 0 -23 9 -9 10 -17 10 -16 6 -19 0 -24 0 -35 -16 -22 -29 0 -7 0 -11 1 -9 5 rrcurveto
          -29 vlineto
          16 -5 15 -2 13 0 rrcurveto
          35 224 rmoveto
          -24 11 rlineto
          -20 -5 -20 -12 -15 -18 rrcurveto
          hintmask 1111111011000000
          -19 -21 -8 -29 0 -37 rrcurveto
          -528 31 527 vlineto
          0 39 5 43 70 30 rrcurveto
          60 -373 rmoveto
          33 vlineto
          -43 -33 -64 -22 -96 0 rrcurveto
          -106 -55 59 76 36 15 86 112 hvcurveto
          59 hlineto
          0 1 0 2 0 1 rrcurveto
          92 -50 51 -84 -57 -48 -23 -41 -24 19 -15 22 vhcurveto
          25 0 14 15 6 13 7 14 7 18 36 0 46 0 24 -41 1 -40 rrcurveto
          -111 hlineto
          -108 -61 -61 -88 -98 85 -66 164 hvcurveto
          104 0 86 21 51 34 rrcurveto
          endchar
        </CharString>
        <CharString name="si_Ca">
          1 113 156 33 -26 26 90 39 121 25 hstemhm
          57 51 -32 79 124 33 209 47 hintmask 1011101110000000
          312 277 rmoveto
          0 3 0 8 0 3 rrcurveto
          86 -43 55 -88 -55 -50 -25 -47 -26 19 -11 18 vhcurveto
          27 0 9 14 6 19 6 16 11 21 38 0 37 0 32 -33 0 -51 0 -2 0 -2 0 -2 rrcurveto
          -16 hlineto
          -37 0 -41 -12 -34 -12 -26 -5 -19 -11 -16 -14 rrcurveto
          hintmask 1011110110000000
          -23 -20 -10 -32 0 -31 rrcurveto
          -119 110 -46 121 183 97 114 160 169 -112 134 -160 vhcurveto
          -98 0 -72 -37 -49 -70 rrcurveto
          33 hlineto
          45 53 62 29 79 0 rrcurveto
          135 90 -109 -126 -124 -77 -80 -153 -90 -93 18 64 hvcurveto
          0 21 10 22 28 15 23 13 35 10 52 0 rrcurveto
          -115 hmoveto
          167 0 -31 26 rlineto
          hintmask 1101100110000000
          -271 -33 hlineto
          16 2 48 4 71 1 rrcurveto
          endchar
        </CharString>
        <CharString name="si_DIi">
          77 0 113 174 28 74 43 32 24 101 81 hstemhm
          46 53 -22 55 166 28 54 33 107 41 -10 47 hintmask 1111110110100000
          260 315 rmoveto
          -245 -28 111 hlineto
          -53 -24 -27 -50 0 -55 0 -85 65 -73 87 0 48 0 36 20 31 39 31 -38 25 -21 62 0 121 0 46 141 0 114 0 111 -45 65 -71 34 rrcurveto
          hintmask 1111101111000000
          49 4 30 36 0 41 0 52 -33 32 -52 18 -45 16 -60 6 -64 0 -139 0 -91 -31 0 -82 0 -98 125 10 122 -5 rrcurveto
          hintmask 1111110110100000
          128 -6 99 -23 0 -155 rrcurveto
          -68 -30 -99 -96 -50 -48 19 48 vhcurveto
          24 -29 -24 vlineto
          -50 -50 -17 -49 -70 -30 37 46 39 33 52 92 vhcurveto
          71 hlineto
          -1 88 -48 57 -81 0 rrcurveto
          -42 -47 -17 -42 -21 18 -14 20 hvcurveto
          15 0 13 5 10 18 15 26 16 2 15 0 rrcurveto
          29 0 30 -31 3 -43 rrcurveto
          153 219 rmoveto
          24 20 21 32 vhcurveto
          hintmask 1111100111000000
          29 26 -17 -30 -27 -22 -16 -32 -31 -22 19 26 hvcurveto
          -3 -50 rmoveto
          -39 7 -66 2 -42 1 rrcurveto
          hintmask 1111101110000000
          -98 -33 14 27 46 95 8 62 hvcurveto
          37 0 39 -2 33 -3 -13 -15 -5 -16 0 -18 0 -17 8 -24 22 -10 rrcurveto
          endchar
        </CharString>
        <CharString name="si_Dda">
          77 0 113 174 28 74 43 123 27 hstem
          46 53 199 28 222 50 vstem
          76 373 rmoveto
          -21 18 -14 20 vhcurveto
          15 0 13 5 10 18 15 26 16 2 15 0 29 0 30 -31 3 -43 rrcurveto
          -245 -28 110 hlineto
          -54 -24 -25 -51 0 -50 0 -81 52 -81 101 0 51 0 33 22 30 37 22 -30 28 -29 65 0 rrcurveto
          119 51 126 132 186 -119 138 -175 hvcurveto
          -94 0 -83 -36 -54 -78 rrcurveto
          34 hlineto
          48 56 63 31 80 0 rrcurveto
          158 92 -126 -145 -97 -49 -74 -82 -58 -32 24 39 hvcurveto
          26 -29 -26 vlineto
          -41 -37 -22 -60 -59 -43 29 54 38 31 53 93 vhcurveto
          72 hlineto
          -1 90 -48 55 -81 0 rrcurveto
          -42 -47 -17 -42 hvcurveto
          endchar
        </CharString>
        <CharString name="si_E">
          25 0 113 156 33 -26 26 57 42 -10 41 hstemhm
          45 55 162 33 -12 32 188 42 hintmask 1010111010000000
          503 287 rmoveto
          -99 -71 -75 -153 -87 -92 19 66 vhcurveto
          0 22 11 20 19 12 24 15 31 9 45 0 rrcurveto
          65 hlineto
          0 3 0 8 0 3 rrcurveto
          73 -38 69 -88 vhcurveto
          hintmask 1001011010000000
          -55 -50 -26 -47 -26 20 -11 17 hvcurveto
          25 0 12 11 7 22 rrcurveto
          hintmask 1010111010000000
          5 16 15 20 28 0 37 0 32 -35 0 -48 0 -2 0 -2 0 -2 rrcurveto
          -11 hlineto
          -37 0 -41 -12 -34 -12 -26 -5 -19 -11 -16 -14 -23 -20 -10 -32 0 -31 rrcurveto
          -119 110 -46 121 183 86 117 128 vhcurveto
          0 70 -13 48 -39 67 -36 62 -71 72 -61 33 rrcurveto
          hintmask 1011010110000000
          -27 -31 -15 -36 0 -50 0 -66 37 -55 63 0 43 0 30 20 15 32 rrcurveto
          17 -27 15 -40 0 -57 rrcurveto
          -374 -11 rmoveto
          162 0 -31 26 rlineto
          hintmask 1100010010000000
          -244 -33 hlineto
          16 2 26 4 71 1 rrcurveto
          322 164 rmoveto
          hintmask 1001010110000000
          -10 -28 -27 -11 -24 0 -51 0 -24 36 0 50 0 34 9 22 10 16 38 -28 49 -46 30 -45 rrcurveto
          endchar
        </CharString>
        <CharString name="si_Ga">
          66 -2 115 -114 26 191 25 99 92 -25 24 hstemhm
          34 43 139 26 62 48 168 66 hintmask 1010111110000000
          233 407 rmoveto
          24 vlineto
          -4 0 -5 1 -4 0 rrcurveto
          -111 -75 -102 -123 -111 63 -98 111 87 57 58 80 66 -33 40 -49 hvcurveto
          -7 0 -8 -2 -7 -3 rrcurveto
          hintmask 0111011110000000
          13 56 37 47 73 0 rrcurveto
          99 50 -80 -84 -77 -51 -74 -107 hvcurveto
          -8 0 -8 1 -8 1 rrcurveto
          -26 vlineto
          11 -1 10 -1 10 0 rrcurveto
          131 86 96 122 115 -64 100 -112 hvcurveto
          -122 0 -62 -115 -10 -125 rrcurveto
          26 hlineto
          0 3 1 9 1 6 6 4 9 2 9 0 rrcurveto
          15 21 -8 -31 hvcurveto
          hintmask 1010111110000000
          -36 -39 -28 -59 -81 -48 51 81 88 59 74 86 vhcurveto
          3 0 5 0 3 0 rrcurveto
          endchar
        </CharString>
        <CharString name="si_Gha">
          107 -1 114 80 30 52 33 -26 26 -18 26 75 41 hstemhm
          51 47 144 31 7 33 65 43 118 40 4 45 hintmask 1101011111110000
          187 432 rmoveto
          -55 -50 -26 -47 -26 20 -11 17 hvcurveto
          25 0 12 13 7 20 6 19 14 17 28 0 38 0 32 -36 -1 -47 rrcurveto
          -11 hlineto
          -37 0 -54 -12 -34 -12 -52 -16 -41 -42 0 -72 0 -78 57 -77 91 0 19 0 28 3 31 9 3 6 1 19 0 7 0 47 -16 9 7 43 rrcurveto
          4 34 24 17 32 0 34 0 19 -21 5 -28 9 -40 -21 -23 0 -39 0 -7 1 -19 3 -4 31 -8 27 -4 24 0 92 0 72 58 0 108 rrcurveto
          0 55 -31 53 -47 23 18 10 11 22 0 22 0 55 -48 26 -54 0 -80 0 -48 -62 4 -89 rrcurveto
          hintmask 1100111111110000
          33 7 26 2 36 0 rrcurveto
          91 44 -40 -55 -54 -53 -28 -51 hvcurveto
          -32 0 -19 4 -7 6 1 12 -2 13 -2 10 -10 46 -39 18 -37 0 -41 0 -40 -21 -8 -52 -2 -8 0 -11 1 -10 -6 -5 -20 -2 -17 0 rrcurveto
          -50 -51 25 52 hvcurveto
          0 36 26 27 31 14 rrcurveto
          hintmask 1101011111110000
          21 10 22 5 21 0 rrcurveto
          94 hlineto
          2 82 -35 68 -93 0 rrcurveto
          hintmask 1110011111110000
          -182 -124 rmoveto
          -33 vlineto
          hintmask 1101011111110000
          16 2 55 4 71 1 rrcurveto
          162 0 -31 26 rlineto
          105 2 rmoveto
          5 55 31 26 52 0 31 0 37 -14 0 -32 0 -17 -6 -12 -10 -9 rrcurveto
          hintmask 1100111111110000
          -14 5 -30 4 -34 0 -26 0 -23 -2 -13 -4 rrcurveto
          endchar
        </CharString>
        <CharString name="si_Ha">
          83 -1 29 -29 114 99 25 42 25 30 98 -51 51 hstemhm
          33 53 119 34 0 23 60 44 180 59 hintmask 0111011011100000
          262 182 rmoveto
          7 21 13 9 13 0 rrcurveto
          16 11 -12 -19 -53 -67 -14 -47 -59 -63 24 60 46 39 35 80 hvcurveto
          11 0 11 -1 12 -1 rrcurveto
          85 -42 70 -79 -56 -29 -38 -30 -26 16 -12 20 vhcurveto
          16 0 15 8 7 19 8 20 11 8 22 0 rrcurveto
          hintmask 0111101101100000
          33 24 -38 -40 hvcurveto
          -4 0 -3 0 -4 0 rrcurveto
          -94 -67 -57 -91 -94 70 -62 98 95 70 54 92 54 -28 38 -38 hvcurveto
          -9 0 -10 -2 -10 -6 21 68 43 37 78 0 rrcurveto
          90 43 -72 -69 hvcurveto
          hintmask 1011101011100000
          -100 -59 -65 -99 vhcurveto
          -12 0 -12 0 -12 2 rrcurveto
          -28 vlineto
          14 -2 14 -1 13 0 rrcurveto
          123 89 93 119 118 -63 103 -112 hvcurveto
          -101 0 -81 -115 -9 -125 rrcurveto
          endchar
        </CharString>
        <CharString name="si_I">
          23 -160 24 121 29 40 28 22 29 98 29 73 99 hstemhm
          33 55 85 64 -30 31 100 39 -6 68 51 54 hintmask 1111111100110000
          273 14 rmoveto
          -11 0 -1 0 -12 -1 rrcurveto
          -29 vlineto
          10 1 0 0 8 0 rrcurveto
          67 37 -26 -42 -38 -32 -16 -39 -54 -13 23 20 hvcurveto
          0 12 3 11 0 6 rrcurveto
          17 -14 10 -15 -17 -17 -12 -26 -63 63 -21 62 66 75 26 59 vhcurveto
          0 39 -22 24 -33 6 89 16 71 82 0 106 rrcurveto
          155 -100 79 -160 -143 -108 -75 -136 -104 80 -63 107 vhcurveto
          hintmask 1111111011010000
          90 67 36 80 53 -33 37 -58 -45 -34 -35 -46 -40 35 -35 43 hvcurveto
          14 0 19 4 15 12 -16 -24 -40 -14 -54 0 rrcurveto
          -83 -52 50 60 90 82 51 115 125 80 -74 -94 -93 -68 -60 -98 hvcurveto
          -17 0 -17 2 -17 0 rrcurveto
          15 217 rmoveto
          27 23 -21 -28 -27 -22 -22 -28 -27 -23 21 28 27 22 22 28 hvcurveto
          endchar
        </CharString>
        <CharString name="si_Ii">
          -42 0 111 292 28 -18 24 36 28 5 27 43 27 hstemhm
          31 41 45 27 77 27 134 27 8 65 4 27 hintmask 1101111111110000
          410 468 rmoveto
          21 17 17 21 21 17 -17 -21 -21 -17 -17 -21 vhcurveto
          -21 -17 17 21 hvcurveto
          -28 hmoveto
          -107 callsubr
          -237 70 rmoveto
          21 17 17 21 21 17 -17 -21 -21 -17 -17 -21 -21 -17 17 21 vhcurveto
          -28 hmoveto
          -107 callsubr
          53 -116 rmoveto
          -75 -40 -64 -59 0 -110 rrcurveto
          -124 93 -89 124 136 98 102 123 vhcurveto
          0 56 -17 45 -35 40 rrcurveto
          hintmask 1011111111110000
          -42 47 -55 24 -71 0 -9 0 -1 0 -5 -1 46 26 34 21 32 28 49 41 23 25 0 20 0 16 -11 12 -23 0 -28 0 -14 -16 -12 -22 rrcurveto
          -13 -20 -12 -26 -21 -23 -38 -41 -36 -27 -53 -28 rrcurveto
          -98 -176 rmoveto
          102 105 65 84 92 64 -50 -89 -101 -82 -62 -105 -108 -50 66 69 vhcurveto
          endchar
        </CharString>
        <CharString name="si_Ka">
          176 -1 114 -114 28 46 63 151 26 39 82 -45 44 hstemhm
          21 27 -19 80 85 31 56 26 149 59 111 75 hintmask 0011010111110000
          109 323 rmoveto
          7 17 -3 2 7 21 6 17 18 9 14 0 25 0 11 -21 0 -26 0 -5 0 -8 -1 -5 -30 -27 -28 -29 -26 -36 rrcurveto
          hintmask 0011001011110000
          -35 -48 -45 -93 -8 -69 rrcurveto
          27 -11 rlineto
          3 40 14 22 22 0 rrcurveto
          hintmask 1001100111110000
          33 0 -3 -74 87 0 42 0 33 23 17 41 21 -43 34 -21 46 0 rrcurveto
          85 33 69 58 123 -90 65 -120 hvcurveto
          -27 0 -34 -2 -30 -8 35 30 51 18 67 0 rrcurveto
          134 125 -83 -140 hvcurveto
          hintmask 0101100111110000
          -54 -28 -48 -47 vhcurveto
          -19 0 -17 5 -9 7 rrcurveto
          -2 -27 rlineto
          17 -12 19 -1 10 0 rrcurveto
          108 43 111 82 136 -98 106 -150 hvcurveto
          -87 0 -82 -33 -59 -55 rrcurveto
          4 vlineto
          hintmask 0011010111110000
          49 -37 34 -52 -57 -50 -39 -54 -12 6 -31 36 vhcurveto
          15 0 16 8 7 18 rrcurveto
          70 -55 rmoveto
          25 12 40 7 57 0 rrcurveto
          102 53 -44 -57 hvcurveto
          hintmask 1001000011110000
          -40 -26 -33 -47 -44 -32 12 66 vhcurveto
          1 -26 -1 vlineto
          -61 -31 -17 -42 vhcurveto
          hintmask 0011000011110000
          -45 0 -19 23 -31 0 -9 0 -11 -3 -10 -8 10 25 10 22 27 40 16 23 16 19 17 14 rrcurveto
          endchar
        </CharString>
        <CharString name="si_Kha">
          60 -1 30 -29 109 8 30 147 102 179 26 hstemhm
          32 33 116 31 144 57 124 47 hintmask 1011111110000000
          93 73 rmoveto
          24 20 20 24 24 20 -20 -24 -24 -20 -20 -24 vhcurveto
          -24 -20 20 24 hvcurveto
          -20 29 rmoveto
          -6 17 -2 17 0 12 rrcurveto
          94 86 52 85 92 28 -39 -41 vhcurveto
          0 -34 -17 -34 -52 -62 -42 -50 -29 -39 -13 -13 rrcurveto
          37 -3 rlineto
          42 55 26 20 13 0 rrcurveto
          hintmask 0111111110000000
          27 0 4 -54 64 0 rrcurveto
          108 60 150 136 187 -120 128 -166 hvcurveto
          -112 0 -77 -48 -45 -83 rrcurveto
          34 hlineto
          42 71 65 34 89 0 rrcurveto
          151 92 -109 -156 -103 -34 -98 -62 hvcurveto
          -40 0 4 33 -29 0 -3 0 -3 0 -3 -1 20 25 26 35 0 57 rrcurveto
          85 -80 53 -93 -116 -92 -74 -139 vhcurveto
          hintmask 1011111110000000
          -75 24 -109 85 40 30 38 36 46 -31 28 -44 vhcurveto
          -29 0 -28 -19 -6 -26 rrcurveto
          endchar
        </CharString>
        <CharString name="si_Na">
          236 -1 30 -30 113 171 25 43 82 -50 48 hstemhm
          55 83 84 31 185 60 181 81 hintmask 1011011110000000
          267 296 rmoveto
          37 39 55 16 59 0 rrcurveto
          133 128 -78 -140 -71 -28 -34 -45 hvcurveto
          -17 0 -17 6 -17 10 rrcurveto
          -13 -23 rlineto
          22 -15 24 -7 25 0 rrcurveto
          74 73 64 120 152 -114 98 -140 hvcurveto
          -105 0 -98 -58 -50 -58 0 1 0 1 0 1 rrcurveto
          hintmask 0110111110000000
          67 -34 44 -65 -65 -34 -47 -42 -33 23 -11 18 vhcurveto
          29 0 11 27 3 20 2 23 14 15 24 0 29 0 14 -27 0 -34 0 -13 -1 -13 -7 -11 -82 -77 -2 -70 -64 0 -15 0 -15 5 -11 6 rrcurveto
          15 -100 104 -50 132 0 rrcurveto
          122 100 54 116 80 -69 59 -84 hvcurveto
          -28 0 -24 -3 -26 -9 rrcurveto
          68 -13 rmoveto
          61 42 -34 -47 -63 -64 -27 -110 hvcurveto
          -58 0 -48 5 -36 14 67 42 -12 110 158 0 rrcurveto
          endchar
        </CharString>
        <CharString name="si_Os">
          66 0 113 110 30 33 28 95 25 120 24 hstem
          30 37 105 28 44 30 18 25 72 30 124 47 vstem
          274 362 rmoveto
          26 21 21 26 26 21 -21 -26 -26 -21 -21 -26 -26 -21 21 26 vhcurveto
          114 -31 rmoveto
          1 -2 0 -2 0 -1 rrcurveto
          -45 -41 -27 -53 -55 -40 30 53 vhcurveto
          0 3 0 17 0 14 0 30 -8 14 -11 8 -7 5 -7 4 -19 0 rrcurveto
          -74 -44 -100 -108 -97 48 -127 118 hvcurveto
          50 0 37 15 22 40 16 -39 44 -16 41 0 rrcurveto
          137 47 127 127 177 -104 147 -184 hvcurveto
          -127 0 -68 -47 -45 -65 rrcurveto
          31 hlineto
          47 57 59 31 99 0 rrcurveto
          160 85 -119 -131 -93 -41 -97 -95 -62 -27 27 37 hvcurveto
          15 -26 -14 vlineto
          -34 -17 -32 -74 -83 -51 63 93 59 27 77 51 23 4 -13 -20 vhcurveto
          0 -9 0 -19 0 -5 rrcurveto
          -74 53 -42 71 71 52 43 64 59 -36 45 -61 -47 -31 -32 -42 -37 27 -37 47 vhcurveto
          43 0 22 31 5 14 rrcurveto
          endchar
        </CharString>
        <CharString name="si_Pa">
          46 0 113 188 26 67 40 -29 28 hstemhm
          31 52 -26 84 363 37 -16 49 hintmask 11100100
          158 434 rmoveto
          -55 -46 -25 -42 -28 22 -11 17 hvcurveto
          25 0 15 15 5 17 5 19 13 15 32 0 32 0 26 -24 -6 -45 -12 1 -11 1 -13 0 rrcurveto
          hintmask 11011001
          -108 -68 -52 -91 -138 128 -46 148 141 126 56 130 hvcurveto
          0 55 -20 38 -40 24 rrcurveto
          hintmask 11010010
          19 14 8 17 0 20 0 39 -36 40 -66 0 -85 0 -45 -50 15 -87 23 4 24 3 23 0 rrcurveto
          hintmask 11101001
          78 53 -25 -56 -79 -118 -30 -100 -105 -118 26 79 61 56 22 77 hvcurveto
          1 0 35 -1 18 -3 rrcurveto
          17 87 -42 50 -88 0 rrcurveto
          330 -119 rmoveto
          -25 9 -27 4 -33 0 -16 0 -15 -1 -17 -2 rrcurveto
          hintmask 11010010
          -7 52 38 28 46 0 47 0 25 -25 0 -29 0 -13 -5 -12 -11 -11 rrcurveto
          endchar
        </CharString>
        <CharString name="si_Tta">
          33 -1 115 250 27 161 25 hstem
          32 53 419 53 vstem
          85 244 rmoveto
          76 67 44 82 vhcurveto
          32 0 28 -6 27 -13 rrcurveto
          30 vlineto
          -29 11 -33 5 -27 0 rrcurveto
          -106 -94 -68 -115 -127 101 -82 152 162 110 116 156 162 -111 144 -173 hvcurveto
          -96 0 -73 -38 -47 -69 rrcurveto
          34 hlineto
          43 54 61 28 80 0 rrcurveto
          142 87 -120 -122 -131 -98 -66 -129 -93 -99 39 92 hvcurveto
          endchar
        </CharString>
        <CharString name="si_U">
          81 -161 49 382 26 91 45 hstem
          32 126 415 30 vstem
          539 270 rmoveto
          0 1 0 3 0 2 rrcurveto
          94 -70 62 -93 -63 -46 -22 -45 -20 15 -18 27 vhcurveto
          25 0 14 15 7 12 14 23 20 10 22 0 47 0 45 -41 3 -50 rrcurveto
          -242 hlineto
          -143 -89 -86 -111 -161 145 -99 151 152 123 97 133 hvcurveto
          -30 hlineto
          -105 -98 -76 -103 -107 -107 87 140 94 49 61 124 vhcurveto
          endchar
        </CharString>
        <CharString name="si_Va">
          0 113 166 25 87 41 120 25 hstemhm
          33 55 -32 79 123 34 209 47 hintmask 11110111
          292 279 rmoveto
          0 3 0 5 0 3 rrcurveto
          86 -43 56 -88 -55 -50 -26 -47 -26 20 -11 18 vhcurveto
          25 0 9 14 7 19 5 16 12 20 37 0 37 0 32 -32 0 -51 0 -2 0 0 0 -2 rrcurveto
          -59 hlineto
          hintmask 11111011
          -101 -65 -54 -85 -119 113 -46 121 183 98 114 160 169 -112 134 -160 hvcurveto
          -98 0 -72 -37 -49 -70 rrcurveto
          33 hlineto
          45 53 62 29 79 0 rrcurveto
          134 91 -111 -131 -117 -78 -80 -153 -86 -96 19 69 49 45 29 74 hvcurveto
          endchar
        </CharString>
</ttFont>
